Coordinates
version=1
nRows=9
nColumns=63
inDegrees=yes

Units are S.I. units (second, meters, Newtons, ...)
If the header above contains a line with 'inDegrees', this indicates whether rotational values are in degrees (yes) or radians (no).

endheader
time	pelvis_tilt	pelvis_list	pelvis_rotation	pelvis_tx	pelvis_ty	pelvis_tz	hip_flexion_r	hip_adduction_r	hip_rotation_r	knee_angle_r	knee_angle_r_beta	ankle_angle_r	subtalar_angle_r	mtp_angle_r	hip_flexion_l	hip_adduction_l	hip_rotation_l	knee_angle_l	knee_angle_l_beta	ankle_angle_l	subtalar_angle_l	mtp_angle_l	L5_S1_Flex_Ext	L5_S1_Lat_Bending	L5_S1_axial_rotation	L4_L5_Flex_Ext	L4_L5_Lat_Bending	L4_L5_axial_rotation	L3_L4_Flex_Ext	L3_L4_Lat_Bending	L3_L4_axial_rotation	L2_L3_Flex_Ext	L2_L3_Lat_Bending	L2_L3_axial_rotation	L1_L2_Flex_Ext	L1_L2_Lat_Bending	L1_L2_axial_rotation	L1_T12_Flex_Ext	L1_T12_Lat_Bending	L1_T12_axial_rotation	Abs_r3	Abs_r2	Abs_r1	Abs_t1	Abs_t2	neck_flexion	neck_bending	neck_rotation	arm_flex_r	arm_add_r	arm_rot_r	elbow_flex_r	pro_sup_r	wrist_flex_r	wrist_dev_r	arm_flex_l	arm_add_l	arm_rot_l	elbow_flex_l	pro_sup_l	wrist_flex_l	wrist_dev_l
      0.00000000	     -1.68473660	     -5.76218719	     82.41787627	      0.20151367	      0.87165469	      0.65824832	      2.21780625	     -3.78184049	    -13.46807782	      9.21369520	      0.16080932	     24.34798932	     16.89564378	      0.00000000	     -2.94222758	      0.01338229	      4.68188030	      1.77888284	      0.03104736	     16.51116429	     -7.85363502	      0.00000000	     -0.07173003	     -0.00846199	      2.35266488	     -0.13320983	     -0.01125445	      2.49970643	     -0.11784526	     -0.02057448	      2.49970643	     -0.08198025	     -0.02057448	      2.05858177	     -0.06660850	     -0.01725569	      1.91154021	     -0.04098654	     -0.01310762	      1.76449866	     -0.51236040	     -0.09572372	     13.08481626	      0.00000000	      0.00000000	     11.95048824	      3.73127671	     -3.31744364	     -7.46749422	    -10.42784313	     25.23428101	     70.74231390	     59.68859178	     35.45865024	     20.22671057	      4.38574251	    -12.98116647	     46.92262545	     72.00512790	     68.61590426	     18.98481144	      9.68569120
      0.01694915	     -1.89696420	     -5.83229732	     82.72104112	      0.20095891	      0.87122893	      0.65779735	      2.34045713	     -4.04402247	    -13.67866973	      9.39733543	      0.16401444	     24.76438173	     17.02397478	      0.00000000	     -2.85877605	      0.25300304	      6.02295542	      1.69850750	      0.02964455	     16.74958300	     -9.28680773	      0.00000000	     -0.03302993	     -0.03079140	      2.17687329	     -0.06133988	     -0.04095256	      2.31292787	     -0.05426487	     -0.07486620	      2.31292787	     -0.03774991	     -0.07486620	      1.90476413	     -0.03067159	     -0.06278982	      1.76870955	     -0.01887330	     -0.04769588	      1.63265497	     -0.23592948	     -0.34831845	     12.10711617	      0.00000000	      0.00000000	     11.56595330	      3.63449949	     -3.17141141	     -7.94976673	     -9.71804629	     24.31330297	     71.00400629	     58.72321009	     33.49763550	     21.86462563	      3.36524471	    -13.04641350	     45.35120973	     73.02891747	     67.97880849	     18.09469459	     12.24470079
      0.03389831	     -2.08736303	     -5.89105490	     82.81287835	      0.20070799	      0.87088810	      0.65747190	      2.45357852	     -4.27112104	    -13.70641189	      9.51648177	      0.16609394	     25.07824299	     17.02946480	      0.00000000	     -2.78493765	      0.46775591	      6.43670719	      1.68160358	      0.02934952	     17.02689452	     -9.82361463	      0.00000000	     -0.00879887	     -0.05096302	      2.05202257	     -0.01634037	     -0.06778082	      2.18027398	     -0.01445566	     -0.12391149	      2.18027398	     -0.01005622	     -0.12391149	      1.79551975	     -0.00817063	     -0.10392379	      1.66726834	     -0.00502767	     -0.07894172	      1.53901693	     -0.06284942	     -0.57650389	     11.41273394	      0.00000000	      0.00000000	     11.40592542	      3.65513743	     -2.85782813	     -8.13866472	     -9.31102320	     23.99280523	     71.14037853	     58.20986932	     32.03416255	     22.58249147	      2.63923676	    -12.99937476	     43.99787413	     73.54942182	     68.21424228	     18.23856078	     13.76052341
      0.05084746	     -2.23226505	     -5.95780251	     82.81656807	      0.20070499	      0.87055040	      0.65722770	      2.55455116	     -4.43109772	    -13.75015120	      9.56887209	      0.16700832	     25.26986700	     17.03240633	      0.00000000	     -2.69331680	      0.61464580	      5.86075667	      1.71906280	      0.03000331	     17.49310685	     -9.10611674	      0.00000000	      0.00652134	     -0.06729913	      1.96053666	      0.01211077	     -0.08950784	      2.08307020	      0.01071390	     -0.16363110	      2.08307020	      0.00745324	     -0.16363110	      1.71546958	      0.00605571	     -0.13723638	      1.59293604	      0.00372629	     -0.10424635	      1.47040250	      0.04658126	     -0.76130119	     10.90391674	      0.00000000	      0.00000000	     11.46343142	      3.67750295	     -2.51913764	     -8.17034357	     -9.08400503	     23.95413973	     71.20007895	     57.82203550	     31.16890458	     23.02844919	      2.21085509	    -12.96322582	     43.02109876	     73.72826217	     68.95020331	     19.10078214	     14.35119792
      0.06779661	     -2.31735456	     -6.01498602	     82.80364353	      0.20086877	      0.87019718	      0.65698976	      2.59757960	     -4.51193340	    -13.78887038	      9.53407748	      0.16640104	     25.39127554	     16.95327656	      0.00000000	     -2.68604827	      0.71453339	      6.86418895	      1.62417186	      0.02834715	     17.23869011	    -10.79207553	      0.00000000	      0.01250700	     -0.07867911	      1.90061601	      0.02322674	     -0.10464321	      2.01940451	      0.02054775	     -0.19130038	      2.01940451	      0.01429425	     -0.19130038	      1.66303900	      0.01161400	     -0.16044243	      1.54425050	      0.00714650	     -0.12187393	      1.42546200	      0.08933623	     -0.89003377	     10.57065604	      0.00000000	      0.00000000	     11.69470465	      3.71913126	     -2.22348629	     -8.16829180	     -9.01624391	     24.12010966	     71.35848541	     57.49182853	     30.20433634	     23.24021073	      2.04263819	    -13.04717290	     42.66871746	     73.95741039	     69.21046875	     19.14637794	     14.92899499
      0.08474576	     -2.43851945	     -6.07258888	     82.57655388	      0.20118040	      0.86989216	      0.65693429	      2.67171651	     -4.62186002	    -13.67853325	      9.44781582	      0.16489549	     25.46204649	     16.91991326	      0.00000000	     -2.58542885	      0.83013889	      5.31256486	      1.72814501	      0.03016182	     17.84313399	     -8.99809627	      0.00000000	      0.01364224	     -0.09307676	      1.89776969	      0.02533501	     -0.12379208	      2.01638029	      0.02241284	     -0.22630682	      2.01638029	      0.01559172	     -0.22630682	      1.66054847	      0.01266819	     -0.18980212	      1.54193787	      0.00779518	     -0.14417589	      1.42332726	      0.09744517	     -1.05290287	     10.55482566	      0.00000000	      0.00000000	     12.01254900	      3.89290640	     -1.87961753	     -8.08394156	     -8.95808888	     24.20386048	     71.37119474	     57.34995861	     30.11584089	     23.60159172	      1.97092190	    -13.02506241	     42.30485703	     73.93861159	     69.72062412	     19.92556170	     15.38773707
      0.10169492	     -2.47197394	     -6.09663878	     82.50717567	      0.20145273	      0.86965407	      0.65674113	      2.62086740	     -4.61966878	    -13.64637181	      9.26089516	      0.16163311	     25.45638559	     16.75991966	      0.00000000	     -2.62670272	      0.88170048	      6.55755993	      1.59586190	      0.02785304	     17.35179175	    -11.03631460	      0.00000000	      0.00953992	     -0.09930205	      1.86525477	      0.01771659	     -0.13207173	      1.98183319	      0.01567314	     -0.24144301	      1.98183319	      0.01090318	     -0.24144301	      1.63209792	      0.00885877	     -0.20249674	      1.51551950	      0.00545111	     -0.15381888	      1.39894108	      0.06814271	     -1.12332467	     10.37398746	      0.00000000	      0.00000000	     12.34516652	      4.04429735	     -1.55122877	     -7.88502881	     -9.13559255	     24.80880856	     71.37750441	     57.42233549	     29.75251720	     22.98440500	      1.82169954	    -13.03016774	     41.85569265	     73.85161894	     71.28827668	     21.14666997	     14.91238743
      0.11864407	     -2.51770086	     -6.11327584	     82.31865611	      0.20189938	      0.86942617	      0.65667272	      2.57616222	     -4.62838578	    -13.64947735	      9.05000954	      0.15795246	     25.43511304	     16.77588725	      0.00000000	     -2.62452008	      0.92045933	      6.31316984	      1.54759161	      0.02701057	     17.59857911	    -10.77203040	      0.00000000	      0.00722922	     -0.10643478	      1.88639798	      0.01342539	     -0.14155826	      2.00429785	      0.01187689	     -0.25878553	      2.00429785	      0.00826228	     -0.25878553	      1.65059823	      0.00671306	     -0.21704181	      1.53269836	      0.00413078	     -0.16486748	      1.41479848	      0.05163762	     -1.20401155	     10.49157963	      0.00000000	      0.00000000	     12.60899206	      4.14038853	     -1.37772536	     -7.82946199	     -9.11814636	     24.88928501	     71.32772338	     57.35558450	     29.98128888	     23.16133387	      1.72358952	    -13.06656187	     41.65770438	     73.83035643	     71.83917852	     22.06173750	     15.11541301
      0.13559322	     -2.54144083	     -6.09267272	     82.01139563	      0.20259322	      0.86924871	      0.65665041	      2.50042547	     -4.59181246	    -13.37919541	      8.79553090	      0.15351097	     25.45048760	     16.69289989	      0.00000000	     -2.70478123	      0.95352676	      7.01890153	      1.39961146	      0.02442783	     17.54138580	    -11.93266531	      0.00000000	      0.00204826	     -0.11178084	      1.93970475	      0.00380382	     -0.14866852	      2.06093630	      0.00336509	     -0.27178394	      2.06093630	      0.00234096	     -0.27178394	      1.69724166	      0.00190201	     -0.22794349	      1.57601011	      0.00117038	     -0.17314853	      1.45477856	      0.01463051	     -1.26448725	     10.78805591	      0.00000000	      0.00000000	     12.80621705	      4.23399584	     -1.26373017	     -7.80160490	     -9.14572239	     25.05380572	     71.30405930	     57.76167723	     29.87424279	     22.70810539	      1.49058280	    -13.10611907	     41.33160177	     73.90699845	     73.24959871	     22.83126267	     14.94709642
